<mxfile host="app.diagrams.net" modified="2023-06-08T07:16:06.743Z" agent="Mozilla/5.0 (Windows NT 10.0; Win64; x64) AppleWebKit/537.36 (KHTML, like Gecko) Chrome/114.0.0.0 Safari/537.36" etag="gBGDzme2IX-liLSDVtEJ" version="21.3.6" type="github">
  <diagram name="Page-1" id="ZHrkb8M3doUFQccYnInZ">
    <mxGraphModel dx="4971" dy="-78" grid="1" gridSize="10" guides="1" tooltips="1" connect="1" arrows="1" fold="1" page="1" pageScale="1" pageWidth="827" pageHeight="1169" math="0" shadow="0">
      <root>
        <mxCell id="0" />
        <mxCell id="1" parent="0" />
        <mxCell id="LGhvk5WUoHeAyWMThnL8-7" value="Disabled" style="rounded=0;whiteSpace=wrap;html=1;strokeColor=#004C99;" vertex="1" parent="1">
          <mxGeometry x="221.5" y="2969.92" width="230" height="140" as="geometry" />
        </mxCell>
        <mxCell id="LGhvk5WUoHeAyWMThnL8-8" value="Compal Laptop" style="text;html=1;strokeColor=none;fillColor=none;align=center;verticalAlign=middle;whiteSpace=wrap;rounded=0;" vertex="1" parent="1">
          <mxGeometry x="283.5" y="2969.92" width="105" height="30" as="geometry" />
        </mxCell>
        <mxCell id="LGhvk5WUoHeAyWMThnL8-63" style="edgeStyle=orthogonalEdgeStyle;rounded=0;orthogonalLoop=1;jettySize=auto;html=1;exitX=0.5;exitY=0;exitDx=0;exitDy=0;entryX=0.5;entryY=1;entryDx=0;entryDy=0;" edge="1" parent="1" source="LGhvk5WUoHeAyWMThnL8-9" target="LGhvk5WUoHeAyWMThnL8-50">
          <mxGeometry relative="1" as="geometry" />
        </mxCell>
        <mxCell id="LGhvk5WUoHeAyWMThnL8-9" value="" style="shape=image;html=1;verticalAlign=top;verticalLabelPosition=bottom;labelBackgroundColor=#ffffff;imageAspect=0;aspect=fixed;image=https://cdn1.iconfinder.com/data/icons/bootstrap-vol-3/16/hdmi-128.png" vertex="1" parent="1">
          <mxGeometry x="234" y="2969.92" width="40" height="40" as="geometry" />
        </mxCell>
        <mxCell id="LGhvk5WUoHeAyWMThnL8-27" style="edgeStyle=orthogonalEdgeStyle;rounded=0;orthogonalLoop=1;jettySize=auto;html=1;exitX=0.5;exitY=0;exitDx=0;exitDy=0;entryX=0.5;entryY=1;entryDx=0;entryDy=0;" edge="1" parent="1" source="LGhvk5WUoHeAyWMThnL8-10" target="LGhvk5WUoHeAyWMThnL8-25">
          <mxGeometry relative="1" as="geometry" />
        </mxCell>
        <mxCell id="LGhvk5WUoHeAyWMThnL8-10" value="Typec" style="rounded=1;whiteSpace=wrap;html=1;" vertex="1" parent="1">
          <mxGeometry x="397.5" y="2984.92" width="40" height="10" as="geometry" />
        </mxCell>
        <mxCell id="LGhvk5WUoHeAyWMThnL8-19" value="HDMI to DP" style="shape=ext;double=1;rounded=1;whiteSpace=wrap;html=1;" vertex="1" parent="1">
          <mxGeometry x="-158.5" y="2979.92" width="120" height="110" as="geometry" />
        </mxCell>
        <mxCell id="LGhvk5WUoHeAyWMThnL8-20" value="" style="shape=image;html=1;verticalAlign=top;verticalLabelPosition=bottom;labelBackgroundColor=#ffffff;imageAspect=0;aspect=fixed;image=https://cdn1.iconfinder.com/data/icons/bootstrap-vol-3/16/hdmi-128.png" vertex="1" parent="1">
          <mxGeometry x="-116.5" y="2969.92" width="40" height="40" as="geometry" />
        </mxCell>
        <mxCell id="LGhvk5WUoHeAyWMThnL8-62" style="edgeStyle=orthogonalEdgeStyle;rounded=0;orthogonalLoop=1;jettySize=auto;html=1;exitX=0.5;exitY=1;exitDx=0;exitDy=0;entryX=0.5;entryY=0;entryDx=0;entryDy=0;" edge="1" parent="1" source="LGhvk5WUoHeAyWMThnL8-21" target="LGhvk5WUoHeAyWMThnL8-23">
          <mxGeometry relative="1" as="geometry" />
        </mxCell>
        <mxCell id="LGhvk5WUoHeAyWMThnL8-21" value="DP" style="rounded=1;whiteSpace=wrap;html=1;" vertex="1" parent="1">
          <mxGeometry x="-146.5" y="3069.92" width="100" height="20" as="geometry" />
        </mxCell>
        <mxCell id="LGhvk5WUoHeAyWMThnL8-22" value="Main Screen" style="html=1;verticalLabelPosition=bottom;align=center;labelBackgroundColor=#ffffff;verticalAlign=top;strokeWidth=2;strokeColor=#0080F0;shadow=0;dashed=0;shape=mxgraph.ios7.icons.monitor;" vertex="1" parent="1">
          <mxGeometry x="-215.5" y="3161.92" width="240" height="165" as="geometry" />
        </mxCell>
        <mxCell id="LGhvk5WUoHeAyWMThnL8-23" value="DP" style="rounded=1;whiteSpace=wrap;html=1;" vertex="1" parent="1">
          <mxGeometry x="-147.5" y="3161.92" width="100" height="20" as="geometry" />
        </mxCell>
        <mxCell id="LGhvk5WUoHeAyWMThnL8-24" value="Conv" style="rounded=0;whiteSpace=wrap;html=1;" vertex="1" parent="1">
          <mxGeometry x="388" y="2809.92" width="55.5" height="100" as="geometry" />
        </mxCell>
        <mxCell id="LGhvk5WUoHeAyWMThnL8-25" value="Typec" style="rounded=1;whiteSpace=wrap;html=1;" vertex="1" parent="1">
          <mxGeometry x="397.75" y="2889.92" width="40" height="10" as="geometry" />
        </mxCell>
        <mxCell id="LGhvk5WUoHeAyWMThnL8-26" value="" style="shape=image;html=1;verticalAlign=top;verticalLabelPosition=bottom;labelBackgroundColor=#ffffff;imageAspect=0;aspect=fixed;image=https://cdn1.iconfinder.com/data/icons/bootstrap-vol-3/16/hdmi-128.png" vertex="1" parent="1">
          <mxGeometry x="397.75" y="2799.92" width="40" height="40" as="geometry" />
        </mxCell>
        <mxCell id="LGhvk5WUoHeAyWMThnL8-28" value="HDMI to DP" style="shape=ext;double=1;rounded=1;whiteSpace=wrap;html=1;" vertex="1" parent="1">
          <mxGeometry x="-530" y="2979.92" width="120" height="110" as="geometry" />
        </mxCell>
        <mxCell id="LGhvk5WUoHeAyWMThnL8-29" value="" style="shape=image;html=1;verticalAlign=top;verticalLabelPosition=bottom;labelBackgroundColor=#ffffff;imageAspect=0;aspect=fixed;image=https://cdn1.iconfinder.com/data/icons/bootstrap-vol-3/16/hdmi-128.png" vertex="1" parent="1">
          <mxGeometry x="-488" y="2969.92" width="40" height="40" as="geometry" />
        </mxCell>
        <mxCell id="LGhvk5WUoHeAyWMThnL8-61" style="edgeStyle=orthogonalEdgeStyle;rounded=0;orthogonalLoop=1;jettySize=auto;html=1;exitX=0.5;exitY=1;exitDx=0;exitDy=0;entryX=0.5;entryY=0;entryDx=0;entryDy=0;" edge="1" parent="1" source="LGhvk5WUoHeAyWMThnL8-30" target="LGhvk5WUoHeAyWMThnL8-32">
          <mxGeometry relative="1" as="geometry" />
        </mxCell>
        <mxCell id="LGhvk5WUoHeAyWMThnL8-30" value="DP" style="rounded=1;whiteSpace=wrap;html=1;" vertex="1" parent="1">
          <mxGeometry x="-518" y="3069.92" width="100" height="20" as="geometry" />
        </mxCell>
        <mxCell id="LGhvk5WUoHeAyWMThnL8-35" value="" style="rounded=0;whiteSpace=wrap;html=1;" vertex="1" parent="1">
          <mxGeometry x="-562" y="2749.92" width="248" height="110" as="geometry" />
        </mxCell>
        <mxCell id="LGhvk5WUoHeAyWMThnL8-31" value="Sub Screen" style="html=1;verticalLabelPosition=bottom;align=center;labelBackgroundColor=#ffffff;verticalAlign=top;strokeWidth=2;strokeColor=#0080F0;shadow=0;dashed=0;shape=mxgraph.ios7.icons.monitor;" vertex="1" parent="1">
          <mxGeometry x="-586" y="3161.92" width="240" height="165" as="geometry" />
        </mxCell>
        <mxCell id="LGhvk5WUoHeAyWMThnL8-32" value="DP" style="rounded=1;whiteSpace=wrap;html=1;" vertex="1" parent="1">
          <mxGeometry x="-518" y="3161.92" width="100" height="20" as="geometry" />
        </mxCell>
        <mxCell id="LGhvk5WUoHeAyWMThnL8-59" style="edgeStyle=orthogonalEdgeStyle;rounded=0;orthogonalLoop=1;jettySize=auto;html=1;exitX=0.5;exitY=1;exitDx=0;exitDy=0;entryX=0.5;entryY=0;entryDx=0;entryDy=0;" edge="1" parent="1" source="LGhvk5WUoHeAyWMThnL8-36" target="LGhvk5WUoHeAyWMThnL8-29">
          <mxGeometry relative="1" as="geometry" />
        </mxCell>
        <mxCell id="LGhvk5WUoHeAyWMThnL8-36" value="" style="shape=image;html=1;verticalAlign=top;verticalLabelPosition=bottom;labelBackgroundColor=#ffffff;imageAspect=0;aspect=fixed;image=https://cdn1.iconfinder.com/data/icons/bootstrap-vol-3/16/hdmi-128.png" vertex="1" parent="1">
          <mxGeometry x="-488" y="2819.92" width="40" height="40" as="geometry" />
        </mxCell>
        <mxCell id="LGhvk5WUoHeAyWMThnL8-37" value="" style="shape=image;html=1;verticalAlign=top;verticalLabelPosition=bottom;labelBackgroundColor=#ffffff;imageAspect=0;aspect=fixed;image=https://cdn1.iconfinder.com/data/icons/bootstrap-vol-3/16/hdmi-128.png" vertex="1" parent="1">
          <mxGeometry x="-426.81" y="2817.11" width="42.81" height="42.81" as="geometry" />
        </mxCell>
        <mxCell id="LGhvk5WUoHeAyWMThnL8-40" value="" style="ellipse;whiteSpace=wrap;html=1;aspect=fixed;" vertex="1" parent="1">
          <mxGeometry x="-532.38" y="2826.73" width="20.38" height="20.38" as="geometry" />
        </mxCell>
        <mxCell id="LGhvk5WUoHeAyWMThnL8-41" value="" style="ellipse;whiteSpace=wrap;html=1;aspect=fixed;" vertex="1" parent="1">
          <mxGeometry x="-528.19" y="2830.92" width="12" height="12" as="geometry" />
        </mxCell>
        <mxCell id="LGhvk5WUoHeAyWMThnL8-43" value="HDMI IN" style="text;html=1;strokeColor=none;fillColor=none;align=center;verticalAlign=middle;whiteSpace=wrap;rounded=0;" vertex="1" parent="1">
          <mxGeometry x="-436" y="2802.92" width="60" height="30" as="geometry" />
        </mxCell>
        <mxCell id="LGhvk5WUoHeAyWMThnL8-45" value="HDMI OUT" style="text;html=1;strokeColor=none;fillColor=none;align=center;verticalAlign=middle;whiteSpace=wrap;rounded=0;" vertex="1" parent="1">
          <mxGeometry x="-498" y="2802.92" width="64" height="30" as="geometry" />
        </mxCell>
        <mxCell id="LGhvk5WUoHeAyWMThnL8-46" value="5V&lt;br&gt;" style="text;html=1;strokeColor=none;fillColor=none;align=center;verticalAlign=middle;whiteSpace=wrap;rounded=0;" vertex="1" parent="1">
          <mxGeometry x="-552.19" y="2802.92" width="60" height="30" as="geometry" />
        </mxCell>
        <mxCell id="LGhvk5WUoHeAyWMThnL8-47" value="HDMI Encoder&lt;br&gt;" style="text;html=1;strokeColor=none;fillColor=none;align=center;verticalAlign=middle;whiteSpace=wrap;rounded=0;" vertex="1" parent="1">
          <mxGeometry x="-610" y="2749.92" width="200" height="30" as="geometry" />
        </mxCell>
        <mxCell id="LGhvk5WUoHeAyWMThnL8-48" value="" style="rounded=0;whiteSpace=wrap;html=1;" vertex="1" parent="1">
          <mxGeometry x="-191.5" y="2749.92" width="248" height="110" as="geometry" />
        </mxCell>
        <mxCell id="LGhvk5WUoHeAyWMThnL8-60" style="edgeStyle=orthogonalEdgeStyle;rounded=0;orthogonalLoop=1;jettySize=auto;html=1;exitX=0.5;exitY=1;exitDx=0;exitDy=0;entryX=0.5;entryY=0;entryDx=0;entryDy=0;" edge="1" parent="1" source="LGhvk5WUoHeAyWMThnL8-49" target="LGhvk5WUoHeAyWMThnL8-20">
          <mxGeometry relative="1" as="geometry" />
        </mxCell>
        <mxCell id="LGhvk5WUoHeAyWMThnL8-49" value="" style="shape=image;html=1;verticalAlign=top;verticalLabelPosition=bottom;labelBackgroundColor=#ffffff;imageAspect=0;aspect=fixed;image=https://cdn1.iconfinder.com/data/icons/bootstrap-vol-3/16/hdmi-128.png" vertex="1" parent="1">
          <mxGeometry x="-117.5" y="2819.92" width="40" height="40" as="geometry" />
        </mxCell>
        <mxCell id="LGhvk5WUoHeAyWMThnL8-50" value="" style="shape=image;html=1;verticalAlign=top;verticalLabelPosition=bottom;labelBackgroundColor=#ffffff;imageAspect=0;aspect=fixed;image=https://cdn1.iconfinder.com/data/icons/bootstrap-vol-3/16/hdmi-128.png" vertex="1" parent="1">
          <mxGeometry x="-56.31" y="2817.11" width="42.81" height="42.81" as="geometry" />
        </mxCell>
        <mxCell id="LGhvk5WUoHeAyWMThnL8-52" value="" style="ellipse;whiteSpace=wrap;html=1;aspect=fixed;" vertex="1" parent="1">
          <mxGeometry x="-161.88" y="2826.73" width="20.38" height="20.38" as="geometry" />
        </mxCell>
        <mxCell id="LGhvk5WUoHeAyWMThnL8-53" value="" style="ellipse;whiteSpace=wrap;html=1;aspect=fixed;" vertex="1" parent="1">
          <mxGeometry x="-157.69000000000005" y="2830.92" width="12" height="12" as="geometry" />
        </mxCell>
        <mxCell id="LGhvk5WUoHeAyWMThnL8-54" value="HDMI IN" style="text;html=1;strokeColor=none;fillColor=none;align=center;verticalAlign=middle;whiteSpace=wrap;rounded=0;" vertex="1" parent="1">
          <mxGeometry x="-65.5" y="2802.92" width="60" height="30" as="geometry" />
        </mxCell>
        <mxCell id="LGhvk5WUoHeAyWMThnL8-56" value="HDMI OUT" style="text;html=1;strokeColor=none;fillColor=none;align=center;verticalAlign=middle;whiteSpace=wrap;rounded=0;" vertex="1" parent="1">
          <mxGeometry x="-127.5" y="2802.92" width="64" height="30" as="geometry" />
        </mxCell>
        <mxCell id="LGhvk5WUoHeAyWMThnL8-57" value="5V&lt;br&gt;" style="text;html=1;strokeColor=none;fillColor=none;align=center;verticalAlign=middle;whiteSpace=wrap;rounded=0;" vertex="1" parent="1">
          <mxGeometry x="-181.69000000000005" y="2802.92" width="60" height="30" as="geometry" />
        </mxCell>
        <mxCell id="LGhvk5WUoHeAyWMThnL8-58" value="HDMI Encoder&lt;br&gt;" style="text;html=1;strokeColor=none;fillColor=none;align=center;verticalAlign=middle;whiteSpace=wrap;rounded=0;" vertex="1" parent="1">
          <mxGeometry x="-167.5" y="2749.92" width="200" height="30" as="geometry" />
        </mxCell>
        <mxCell id="LGhvk5WUoHeAyWMThnL8-65" style="edgeStyle=orthogonalEdgeStyle;rounded=0;orthogonalLoop=1;jettySize=auto;html=1;exitX=0.5;exitY=0;exitDx=0;exitDy=0;entryX=0.5;entryY=0;entryDx=0;entryDy=0;" edge="1" parent="1" source="LGhvk5WUoHeAyWMThnL8-26" target="LGhvk5WUoHeAyWMThnL8-43">
          <mxGeometry relative="1" as="geometry">
            <Array as="points">
              <mxPoint x="418" y="2629.92" />
              <mxPoint x="-406" y="2629.92" />
            </Array>
          </mxGeometry>
        </mxCell>
        <mxCell id="LGhvk5WUoHeAyWMThnL8-124" style="edgeStyle=orthogonalEdgeStyle;rounded=0;orthogonalLoop=1;jettySize=auto;html=1;exitX=0.5;exitY=0;exitDx=0;exitDy=0;exitPerimeter=0;entryX=0;entryY=0.5;entryDx=0;entryDy=0;fillColor=#1ba1e2;strokeColor=#006EAF;" edge="1" parent="1" source="LGhvk5WUoHeAyWMThnL8-66" target="LGhvk5WUoHeAyWMThnL8-71">
          <mxGeometry relative="1" as="geometry" />
        </mxCell>
        <mxCell id="LGhvk5WUoHeAyWMThnL8-131" value="&lt;font style=&quot;font-size: 14px;&quot;&gt;Station 6 Sub Screen&lt;/font&gt;" style="edgeLabel;html=1;align=center;verticalAlign=middle;resizable=0;points=[];" vertex="1" connectable="0" parent="LGhvk5WUoHeAyWMThnL8-124">
          <mxGeometry x="0.8772" y="5" relative="1" as="geometry">
            <mxPoint x="1" as="offset" />
          </mxGeometry>
        </mxCell>
        <mxCell id="LGhvk5WUoHeAyWMThnL8-66" value="" style="shape=mxgraph.signs.tech.ethernet;html=1;pointerEvents=1;fillColor=#000000;strokeColor=none;verticalLabelPosition=bottom;verticalAlign=top;align=center;" vertex="1" parent="1">
          <mxGeometry x="-366.5" y="2828.52" width="40.5" height="19.4" as="geometry" />
        </mxCell>
        <mxCell id="LGhvk5WUoHeAyWMThnL8-126" style="edgeStyle=orthogonalEdgeStyle;rounded=0;orthogonalLoop=1;jettySize=auto;html=1;exitX=0.5;exitY=0;exitDx=0;exitDy=0;exitPerimeter=0;entryX=0.25;entryY=1;entryDx=0;entryDy=0;fillColor=#1ba1e2;strokeColor=#006EAF;" edge="1" parent="1" source="LGhvk5WUoHeAyWMThnL8-70" target="LGhvk5WUoHeAyWMThnL8-71">
          <mxGeometry relative="1" as="geometry">
            <Array as="points">
              <mxPoint x="28.5" y="2530" />
              <mxPoint x="489.5" y="2530" />
            </Array>
          </mxGeometry>
        </mxCell>
        <mxCell id="LGhvk5WUoHeAyWMThnL8-130" value="&lt;font style=&quot;font-size: 14px;&quot;&gt;Station 6 Main screen&lt;/font&gt;" style="edgeLabel;html=1;align=center;verticalAlign=middle;resizable=0;points=[];" vertex="1" connectable="0" parent="LGhvk5WUoHeAyWMThnL8-126">
          <mxGeometry x="0.7329" y="-2" relative="1" as="geometry">
            <mxPoint as="offset" />
          </mxGeometry>
        </mxCell>
        <mxCell id="LGhvk5WUoHeAyWMThnL8-70" value="" style="shape=mxgraph.signs.tech.ethernet;html=1;pointerEvents=1;fillColor=#000000;strokeColor=none;verticalLabelPosition=bottom;verticalAlign=top;align=center;" vertex="1" parent="1">
          <mxGeometry x="8" y="2828.22" width="40.5" height="19.4" as="geometry" />
        </mxCell>
        <mxCell id="LGhvk5WUoHeAyWMThnL8-71" value="" style="shape=image;html=1;verticalAlign=top;verticalLabelPosition=bottom;labelBackgroundColor=#ffffff;imageAspect=0;aspect=fixed;image=https://cdn1.iconfinder.com/data/icons/uiux-001-solid/32/Camera-128.png" vertex="1" parent="1">
          <mxGeometry x="457.31" y="2390" width="128" height="128" as="geometry" />
        </mxCell>
        <mxCell id="LGhvk5WUoHeAyWMThnL8-77" value="Disabled" style="rounded=0;whiteSpace=wrap;html=1;strokeColor=#004C99;" vertex="1" parent="1">
          <mxGeometry x="1323" y="2971.42" width="230" height="140" as="geometry" />
        </mxCell>
        <mxCell id="LGhvk5WUoHeAyWMThnL8-78" value="Compal Laptop" style="text;html=1;strokeColor=none;fillColor=none;align=center;verticalAlign=middle;whiteSpace=wrap;rounded=0;" vertex="1" parent="1">
          <mxGeometry x="1385" y="2971.42" width="105" height="30" as="geometry" />
        </mxCell>
        <mxCell id="LGhvk5WUoHeAyWMThnL8-79" style="edgeStyle=orthogonalEdgeStyle;rounded=0;orthogonalLoop=1;jettySize=auto;html=1;exitX=0.5;exitY=0;exitDx=0;exitDy=0;entryX=0.5;entryY=1;entryDx=0;entryDy=0;" edge="1" parent="1" source="LGhvk5WUoHeAyWMThnL8-80" target="LGhvk5WUoHeAyWMThnL8-111">
          <mxGeometry relative="1" as="geometry" />
        </mxCell>
        <mxCell id="LGhvk5WUoHeAyWMThnL8-80" value="" style="shape=image;html=1;verticalAlign=top;verticalLabelPosition=bottom;labelBackgroundColor=#ffffff;imageAspect=0;aspect=fixed;image=https://cdn1.iconfinder.com/data/icons/bootstrap-vol-3/16/hdmi-128.png" vertex="1" parent="1">
          <mxGeometry x="1335.5" y="2971.42" width="40" height="40" as="geometry" />
        </mxCell>
        <mxCell id="LGhvk5WUoHeAyWMThnL8-81" style="edgeStyle=orthogonalEdgeStyle;rounded=0;orthogonalLoop=1;jettySize=auto;html=1;exitX=0.5;exitY=0;exitDx=0;exitDy=0;entryX=0.5;entryY=1;entryDx=0;entryDy=0;" edge="1" parent="1" source="LGhvk5WUoHeAyWMThnL8-82" target="LGhvk5WUoHeAyWMThnL8-90">
          <mxGeometry relative="1" as="geometry" />
        </mxCell>
        <mxCell id="LGhvk5WUoHeAyWMThnL8-82" value="Typec" style="rounded=1;whiteSpace=wrap;html=1;" vertex="1" parent="1">
          <mxGeometry x="1499" y="2986.42" width="40" height="10" as="geometry" />
        </mxCell>
        <mxCell id="LGhvk5WUoHeAyWMThnL8-83" value="HDMI to DP" style="shape=ext;double=1;rounded=1;whiteSpace=wrap;html=1;" vertex="1" parent="1">
          <mxGeometry x="943" y="2981.42" width="120" height="110" as="geometry" />
        </mxCell>
        <mxCell id="LGhvk5WUoHeAyWMThnL8-84" value="" style="shape=image;html=1;verticalAlign=top;verticalLabelPosition=bottom;labelBackgroundColor=#ffffff;imageAspect=0;aspect=fixed;image=https://cdn1.iconfinder.com/data/icons/bootstrap-vol-3/16/hdmi-128.png" vertex="1" parent="1">
          <mxGeometry x="985" y="2971.42" width="40" height="40" as="geometry" />
        </mxCell>
        <mxCell id="LGhvk5WUoHeAyWMThnL8-85" style="edgeStyle=orthogonalEdgeStyle;rounded=0;orthogonalLoop=1;jettySize=auto;html=1;exitX=0.5;exitY=1;exitDx=0;exitDy=0;entryX=0.5;entryY=0;entryDx=0;entryDy=0;" edge="1" parent="1" source="LGhvk5WUoHeAyWMThnL8-86" target="LGhvk5WUoHeAyWMThnL8-88">
          <mxGeometry relative="1" as="geometry" />
        </mxCell>
        <mxCell id="LGhvk5WUoHeAyWMThnL8-86" value="DP" style="rounded=1;whiteSpace=wrap;html=1;" vertex="1" parent="1">
          <mxGeometry x="955" y="3071.42" width="100" height="20" as="geometry" />
        </mxCell>
        <mxCell id="LGhvk5WUoHeAyWMThnL8-87" value="Main Screen" style="html=1;verticalLabelPosition=bottom;align=center;labelBackgroundColor=#ffffff;verticalAlign=top;strokeWidth=2;strokeColor=#0080F0;shadow=0;dashed=0;shape=mxgraph.ios7.icons.monitor;" vertex="1" parent="1">
          <mxGeometry x="886" y="3163.42" width="240" height="165" as="geometry" />
        </mxCell>
        <mxCell id="LGhvk5WUoHeAyWMThnL8-88" value="DP" style="rounded=1;whiteSpace=wrap;html=1;" vertex="1" parent="1">
          <mxGeometry x="954" y="3163.42" width="100" height="20" as="geometry" />
        </mxCell>
        <mxCell id="LGhvk5WUoHeAyWMThnL8-89" value="Conv" style="rounded=0;whiteSpace=wrap;html=1;" vertex="1" parent="1">
          <mxGeometry x="1489.5" y="2811.42" width="55.5" height="100" as="geometry" />
        </mxCell>
        <mxCell id="LGhvk5WUoHeAyWMThnL8-90" value="Typec" style="rounded=1;whiteSpace=wrap;html=1;" vertex="1" parent="1">
          <mxGeometry x="1499.25" y="2891.42" width="40" height="10" as="geometry" />
        </mxCell>
        <mxCell id="LGhvk5WUoHeAyWMThnL8-91" value="" style="shape=image;html=1;verticalAlign=top;verticalLabelPosition=bottom;labelBackgroundColor=#ffffff;imageAspect=0;aspect=fixed;image=https://cdn1.iconfinder.com/data/icons/bootstrap-vol-3/16/hdmi-128.png" vertex="1" parent="1">
          <mxGeometry x="1499.25" y="2801.42" width="40" height="40" as="geometry" />
        </mxCell>
        <mxCell id="LGhvk5WUoHeAyWMThnL8-92" value="HDMI to DP" style="shape=ext;double=1;rounded=1;whiteSpace=wrap;html=1;" vertex="1" parent="1">
          <mxGeometry x="571.5" y="2981.42" width="120" height="110" as="geometry" />
        </mxCell>
        <mxCell id="LGhvk5WUoHeAyWMThnL8-93" value="" style="shape=image;html=1;verticalAlign=top;verticalLabelPosition=bottom;labelBackgroundColor=#ffffff;imageAspect=0;aspect=fixed;image=https://cdn1.iconfinder.com/data/icons/bootstrap-vol-3/16/hdmi-128.png" vertex="1" parent="1">
          <mxGeometry x="613.5" y="2971.42" width="40" height="40" as="geometry" />
        </mxCell>
        <mxCell id="LGhvk5WUoHeAyWMThnL8-94" style="edgeStyle=orthogonalEdgeStyle;rounded=0;orthogonalLoop=1;jettySize=auto;html=1;exitX=0.5;exitY=1;exitDx=0;exitDy=0;entryX=0.5;entryY=0;entryDx=0;entryDy=0;" edge="1" parent="1" source="LGhvk5WUoHeAyWMThnL8-95" target="LGhvk5WUoHeAyWMThnL8-98">
          <mxGeometry relative="1" as="geometry" />
        </mxCell>
        <mxCell id="LGhvk5WUoHeAyWMThnL8-95" value="DP" style="rounded=1;whiteSpace=wrap;html=1;" vertex="1" parent="1">
          <mxGeometry x="583.5" y="3071.42" width="100" height="20" as="geometry" />
        </mxCell>
        <mxCell id="LGhvk5WUoHeAyWMThnL8-96" value="" style="rounded=0;whiteSpace=wrap;html=1;" vertex="1" parent="1">
          <mxGeometry x="539.5" y="2751.42" width="248" height="110" as="geometry" />
        </mxCell>
        <mxCell id="LGhvk5WUoHeAyWMThnL8-97" value="Sub Screen" style="html=1;verticalLabelPosition=bottom;align=center;labelBackgroundColor=#ffffff;verticalAlign=top;strokeWidth=2;strokeColor=#0080F0;shadow=0;dashed=0;shape=mxgraph.ios7.icons.monitor;" vertex="1" parent="1">
          <mxGeometry x="515.5" y="3163.42" width="240" height="165" as="geometry" />
        </mxCell>
        <mxCell id="LGhvk5WUoHeAyWMThnL8-98" value="DP" style="rounded=1;whiteSpace=wrap;html=1;" vertex="1" parent="1">
          <mxGeometry x="583.5" y="3163.42" width="100" height="20" as="geometry" />
        </mxCell>
        <mxCell id="LGhvk5WUoHeAyWMThnL8-99" style="edgeStyle=orthogonalEdgeStyle;rounded=0;orthogonalLoop=1;jettySize=auto;html=1;exitX=0.5;exitY=1;exitDx=0;exitDy=0;entryX=0.5;entryY=0;entryDx=0;entryDy=0;" edge="1" parent="1" source="LGhvk5WUoHeAyWMThnL8-100" target="LGhvk5WUoHeAyWMThnL8-93">
          <mxGeometry relative="1" as="geometry" />
        </mxCell>
        <mxCell id="LGhvk5WUoHeAyWMThnL8-100" value="" style="shape=image;html=1;verticalAlign=top;verticalLabelPosition=bottom;labelBackgroundColor=#ffffff;imageAspect=0;aspect=fixed;image=https://cdn1.iconfinder.com/data/icons/bootstrap-vol-3/16/hdmi-128.png" vertex="1" parent="1">
          <mxGeometry x="613.5" y="2821.42" width="40" height="40" as="geometry" />
        </mxCell>
        <mxCell id="LGhvk5WUoHeAyWMThnL8-101" value="" style="shape=image;html=1;verticalAlign=top;verticalLabelPosition=bottom;labelBackgroundColor=#ffffff;imageAspect=0;aspect=fixed;image=https://cdn1.iconfinder.com/data/icons/bootstrap-vol-3/16/hdmi-128.png" vertex="1" parent="1">
          <mxGeometry x="674.69" y="2818.61" width="42.81" height="42.81" as="geometry" />
        </mxCell>
        <mxCell id="LGhvk5WUoHeAyWMThnL8-102" value="" style="ellipse;whiteSpace=wrap;html=1;aspect=fixed;" vertex="1" parent="1">
          <mxGeometry x="569.12" y="2828.23" width="20.38" height="20.38" as="geometry" />
        </mxCell>
        <mxCell id="LGhvk5WUoHeAyWMThnL8-103" value="" style="ellipse;whiteSpace=wrap;html=1;aspect=fixed;" vertex="1" parent="1">
          <mxGeometry x="573.31" y="2832.42" width="12" height="12" as="geometry" />
        </mxCell>
        <mxCell id="LGhvk5WUoHeAyWMThnL8-104" value="HDMI IN" style="text;html=1;strokeColor=none;fillColor=none;align=center;verticalAlign=middle;whiteSpace=wrap;rounded=0;" vertex="1" parent="1">
          <mxGeometry x="665.5" y="2804.42" width="60" height="30" as="geometry" />
        </mxCell>
        <mxCell id="LGhvk5WUoHeAyWMThnL8-105" value="HDMI OUT" style="text;html=1;strokeColor=none;fillColor=none;align=center;verticalAlign=middle;whiteSpace=wrap;rounded=0;" vertex="1" parent="1">
          <mxGeometry x="603.5" y="2804.42" width="64" height="30" as="geometry" />
        </mxCell>
        <mxCell id="LGhvk5WUoHeAyWMThnL8-106" value="5V&lt;br&gt;" style="text;html=1;strokeColor=none;fillColor=none;align=center;verticalAlign=middle;whiteSpace=wrap;rounded=0;" vertex="1" parent="1">
          <mxGeometry x="549.31" y="2804.42" width="60" height="30" as="geometry" />
        </mxCell>
        <mxCell id="LGhvk5WUoHeAyWMThnL8-107" value="HDMI Encoder&lt;br&gt;" style="text;html=1;strokeColor=none;fillColor=none;align=center;verticalAlign=middle;whiteSpace=wrap;rounded=0;" vertex="1" parent="1">
          <mxGeometry x="491.5" y="2785.92" width="200" height="30" as="geometry" />
        </mxCell>
        <mxCell id="LGhvk5WUoHeAyWMThnL8-108" value="" style="rounded=0;whiteSpace=wrap;html=1;" vertex="1" parent="1">
          <mxGeometry x="910" y="2751.42" width="248" height="110" as="geometry" />
        </mxCell>
        <mxCell id="LGhvk5WUoHeAyWMThnL8-109" style="edgeStyle=orthogonalEdgeStyle;rounded=0;orthogonalLoop=1;jettySize=auto;html=1;exitX=0.5;exitY=1;exitDx=0;exitDy=0;entryX=0.5;entryY=0;entryDx=0;entryDy=0;" edge="1" parent="1" source="LGhvk5WUoHeAyWMThnL8-110" target="LGhvk5WUoHeAyWMThnL8-84">
          <mxGeometry relative="1" as="geometry" />
        </mxCell>
        <mxCell id="LGhvk5WUoHeAyWMThnL8-110" value="" style="shape=image;html=1;verticalAlign=top;verticalLabelPosition=bottom;labelBackgroundColor=#ffffff;imageAspect=0;aspect=fixed;image=https://cdn1.iconfinder.com/data/icons/bootstrap-vol-3/16/hdmi-128.png" vertex="1" parent="1">
          <mxGeometry x="984" y="2821.42" width="40" height="40" as="geometry" />
        </mxCell>
        <mxCell id="LGhvk5WUoHeAyWMThnL8-111" value="" style="shape=image;html=1;verticalAlign=top;verticalLabelPosition=bottom;labelBackgroundColor=#ffffff;imageAspect=0;aspect=fixed;image=https://cdn1.iconfinder.com/data/icons/bootstrap-vol-3/16/hdmi-128.png" vertex="1" parent="1">
          <mxGeometry x="1045.19" y="2818.61" width="42.81" height="42.81" as="geometry" />
        </mxCell>
        <mxCell id="LGhvk5WUoHeAyWMThnL8-112" value="" style="ellipse;whiteSpace=wrap;html=1;aspect=fixed;" vertex="1" parent="1">
          <mxGeometry x="939.62" y="2828.23" width="20.38" height="20.38" as="geometry" />
        </mxCell>
        <mxCell id="LGhvk5WUoHeAyWMThnL8-113" value="" style="ellipse;whiteSpace=wrap;html=1;aspect=fixed;" vertex="1" parent="1">
          <mxGeometry x="943.81" y="2832.42" width="12" height="12" as="geometry" />
        </mxCell>
        <mxCell id="LGhvk5WUoHeAyWMThnL8-114" value="HDMI IN" style="text;html=1;strokeColor=none;fillColor=none;align=center;verticalAlign=middle;whiteSpace=wrap;rounded=0;" vertex="1" parent="1">
          <mxGeometry x="1036" y="2804.42" width="60" height="30" as="geometry" />
        </mxCell>
        <mxCell id="LGhvk5WUoHeAyWMThnL8-115" value="HDMI OUT" style="text;html=1;strokeColor=none;fillColor=none;align=center;verticalAlign=middle;whiteSpace=wrap;rounded=0;" vertex="1" parent="1">
          <mxGeometry x="974" y="2804.42" width="64" height="30" as="geometry" />
        </mxCell>
        <mxCell id="LGhvk5WUoHeAyWMThnL8-116" value="5V&lt;br&gt;" style="text;html=1;strokeColor=none;fillColor=none;align=center;verticalAlign=middle;whiteSpace=wrap;rounded=0;" vertex="1" parent="1">
          <mxGeometry x="919.81" y="2804.42" width="60" height="30" as="geometry" />
        </mxCell>
        <mxCell id="LGhvk5WUoHeAyWMThnL8-117" value="HDMI Encoder&lt;br&gt;" style="text;html=1;strokeColor=none;fillColor=none;align=center;verticalAlign=middle;whiteSpace=wrap;rounded=0;" vertex="1" parent="1">
          <mxGeometry x="934" y="2751.42" width="200" height="30" as="geometry" />
        </mxCell>
        <mxCell id="LGhvk5WUoHeAyWMThnL8-118" style="edgeStyle=orthogonalEdgeStyle;rounded=0;orthogonalLoop=1;jettySize=auto;html=1;exitX=0.5;exitY=0;exitDx=0;exitDy=0;entryX=0.5;entryY=0;entryDx=0;entryDy=0;" edge="1" parent="1" source="LGhvk5WUoHeAyWMThnL8-91" target="LGhvk5WUoHeAyWMThnL8-104">
          <mxGeometry relative="1" as="geometry">
            <Array as="points">
              <mxPoint x="1519" y="2710" />
              <mxPoint x="696" y="2710" />
            </Array>
          </mxGeometry>
        </mxCell>
        <mxCell id="LGhvk5WUoHeAyWMThnL8-128" style="edgeStyle=orthogonalEdgeStyle;rounded=0;orthogonalLoop=1;jettySize=auto;html=1;exitX=0.5;exitY=0;exitDx=0;exitDy=0;exitPerimeter=0;entryX=0.75;entryY=1;entryDx=0;entryDy=0;fillColor=#1ba1e2;strokeColor=#006EAF;" edge="1" parent="1" source="LGhvk5WUoHeAyWMThnL8-120" target="LGhvk5WUoHeAyWMThnL8-71">
          <mxGeometry relative="1" as="geometry" />
        </mxCell>
        <mxCell id="LGhvk5WUoHeAyWMThnL8-132" value="&lt;font style=&quot;font-size: 14px;&quot;&gt;Station 14 Sub Screen&lt;/font&gt;" style="edgeLabel;html=1;align=center;verticalAlign=middle;resizable=0;points=[];" vertex="1" connectable="0" parent="LGhvk5WUoHeAyWMThnL8-128">
          <mxGeometry x="0.1466" y="-5" relative="1" as="geometry">
            <mxPoint as="offset" />
          </mxGeometry>
        </mxCell>
        <mxCell id="LGhvk5WUoHeAyWMThnL8-120" value="" style="shape=mxgraph.signs.tech.ethernet;html=1;pointerEvents=1;fillColor=#000000;strokeColor=none;verticalLabelPosition=bottom;verticalAlign=top;align=center;" vertex="1" parent="1">
          <mxGeometry x="735" y="2830.02" width="40.5" height="19.4" as="geometry" />
        </mxCell>
        <mxCell id="LGhvk5WUoHeAyWMThnL8-129" style="edgeStyle=orthogonalEdgeStyle;rounded=0;orthogonalLoop=1;jettySize=auto;html=1;exitX=0.5;exitY=0;exitDx=0;exitDy=0;exitPerimeter=0;entryX=1;entryY=0.5;entryDx=0;entryDy=0;fillColor=#1ba1e2;strokeColor=#006EAF;" edge="1" parent="1" source="LGhvk5WUoHeAyWMThnL8-122" target="LGhvk5WUoHeAyWMThnL8-71">
          <mxGeometry relative="1" as="geometry" />
        </mxCell>
        <mxCell id="LGhvk5WUoHeAyWMThnL8-133" value="&lt;font style=&quot;font-size: 14px;&quot;&gt;Station 14 main screen&lt;/font&gt;" style="edgeLabel;html=1;align=center;verticalAlign=middle;resizable=0;points=[];" vertex="1" connectable="0" parent="LGhvk5WUoHeAyWMThnL8-129">
          <mxGeometry x="0.6493" y="-5" relative="1" as="geometry">
            <mxPoint x="-1" as="offset" />
          </mxGeometry>
        </mxCell>
        <mxCell id="LGhvk5WUoHeAyWMThnL8-122" value="" style="shape=mxgraph.signs.tech.ethernet;html=1;pointerEvents=1;fillColor=#000000;strokeColor=none;verticalLabelPosition=bottom;verticalAlign=top;align=center;" vertex="1" parent="1">
          <mxGeometry x="1109.5" y="2829.72" width="40.5" height="19.4" as="geometry" />
        </mxCell>
      </root>
    </mxGraphModel>
  </diagram>
</mxfile>
